<?xml version="1.0" encoding="UTF-8"?><svg id="Capa_2" xmlns="http://www.w3.org/2000/svg" xmlns:xlink="http://www.w3.org/1999/xlink" viewBox="0 0 235.81 76.61"><defs><clipPath id="clippath"><path d="M64.89,45.88c-.53.39-.9.78-1.13,1.16-.22.39-.34.84-.34,1.36s.09.98.28,1.39.45.74.78,1.01c.71.55,1.5.83,2.38.83s1.6-.1,2.17-.31c.56-.21,1.05-.47,1.46-.79.89-.69,1.33-1.42,1.33-2.19-.08-.96-.61-1.72-1.6-2.27-.89-.51-1.93-.77-3.14-.77-.94,0-1.67.2-2.19.59" style="fill:#1e9dcd;"/></clipPath><clipPath id="clippath-1"><path d="M12.7,39.09c-.81,1.31-1.21,2.98-1.21,5.01s.42,3.8,1.25,5.16c.94,1.54,2.23,2.31,3.87,2.31.85,0,1.62-.21,2.33-.62.71-.41,1.32-.96,1.83-1.66,1.08-1.49,1.62-3.22,1.62-5.2,0-2.13-.6-3.88-1.81-5.24-1.16-1.31-2.53-1.96-4.14-1.96s-2.84.73-3.74,2.19" style="fill:#1e9dcd;"/></clipPath><clipPath id="clippath-2"><path d="M11.59,54.62c-1.1-.62-2.02-1.46-2.76-2.51-1.53-2.13-2.29-4.84-2.29-8.12,0-3.11.9-5.74,2.71-7.89,1.8-2.14,3.92-3.22,6.35-3.22,1.59,0,2.94.31,4.03.94,1.1.63,2.05,1.57,2.86,2.81l.46-1.85.17-.64c.1-.36.26-.58.47-.66s.45-.13.7-.13h1.19c.81,0,1.21.5,1.21,1.5v29.8c0,.33-.1.63-.29.89-.19.26-.44.39-.73.39h-2.68c-.3,0-.54-.13-.74-.39-.2-.26-.3-.55-.3-.89v-8.09c0-1.04.07-2.69.21-4.95-1.03,1.85-2.57,3.06-4.64,3.64-.69.19-1.59.29-2.68.29s-2.18-.31-3.28-.93M44,33.16c.72-.19,1.61-.29,2.69-.29s2.06.23,2.97.68c.91.46,1.63,1.08,2.16,1.88.98,1.45,1.46,3.59,1.46,6.41v11.96c0,.36-.12.66-.35.9-.23.24-.57.37-1.02.37h-1.89c-.49,0-.85-.12-1.08-.37-.23-.24-.35-.55-.35-.9v-11.97c0-3.28-1.21-4.93-3.62-4.93-1.41,0-2.7.59-3.87,1.77-1.25,1.27-1.87,2.75-1.87,4.43v10.7c0,.36-.11.66-.33.9-.22.24-.55.37-1,.37h-1.98c-.45,0-.79-.12-1.02-.37-.23-.24-.35-.55-.35-.9v-11.82c0-2.58-.08-4.38-.25-5.4-.17-1.02-.25-1.63-.25-1.84,0-.92.44-1.39,1.33-1.39h1.06c.72,0,1.2.27,1.46.81.36.77.67,1.78.92,3.04,1.15-2.11,2.88-3.45,5.16-4.04M9.83,9.83c-13.1,13.1-13.1,34.35,0,47.45,13.1,13.1,48.45,27.21,61.56,14.11,3.87-3.87,5.36-9.7,5.2-16.31h-1.67c-.5,0-.8-.1-.9-.3-.1-.2-.16-.38-.17-.54-.01-.16-.04-.36-.08-.59-.08-.63-.19-1.31-.33-2.04-1,1.84-2.57,3.05-4.72,3.64-.76.2-1.59.31-2.5.31s-1.82-.15-2.73-.45c-.91-.3-1.72-.75-2.43-1.34-1.59-1.33-2.39-3.09-2.39-5.26,0-2.37.87-4.19,2.62-5.45,1.44-1.01,3.29-1.52,5.54-1.52s4.17.66,5.74,1.98c.04-.44.06-.98.06-1.64s-.13-1.31-.39-1.96c-.26-.65-.62-1.2-1.1-1.64-.98-.86-2.34-1.29-4.08-1.29-1.56,0-3.16.43-4.77,1.29-.31.17-.58.25-.81.25-.35,0-.68-.34-1-1.02-.35-.69-.52-1.19-.52-1.5,0-.56.42-1.11,1.27-1.64,1.62-1,3.78-1.5,6.49-1.5,1.51,0,2.86.26,4.06.77-3.76-9.61-9.21-18.52-14.5-23.81C50.72,3.28,42.14,0,33.55,0S16.38,3.28,9.83,9.83" style="fill:#1e9dcd;"/></clipPath></defs><g id="Capa_1-2"><path d="M64.89,45.88c-.53.39-.9.78-1.13,1.16-.22.39-.34.84-.34,1.36s.09.98.28,1.39.45.74.78,1.01c.71.55,1.5.83,2.38.83s1.6-.1,2.17-.31c.56-.21,1.05-.47,1.46-.79.89-.69,1.33-1.42,1.33-2.19-.08-.96-.61-1.72-1.6-2.27-.89-.51-1.93-.77-3.14-.77-.94,0-1.67.2-2.19.59" style="fill:#1e9dcd;"/><g style="clip-path:url(#clippath);"><rect x="63.42" y="45.29" width="8.39" height="6.33" style="fill:#1e9dcd;"/></g><path d="M12.7,39.09c-.81,1.31-1.21,2.98-1.21,5.01s.42,3.8,1.25,5.16c.94,1.54,2.23,2.31,3.87,2.31.85,0,1.62-.21,2.33-.62.71-.41,1.32-.96,1.83-1.66,1.08-1.49,1.62-3.22,1.62-5.2,0-2.13-.6-3.88-1.81-5.24-1.16-1.31-2.53-1.96-4.14-1.96s-2.84.73-3.74,2.19" style="fill:#1e9dcd;"/><g style="clip-path:url(#clippath-1);"><rect x="11.48" y="36.9" width="10.9" height="14.67" style="fill:#1e9dcd;"/></g><path d="M11.59,54.62c-1.1-.62-2.02-1.46-2.76-2.51-1.53-2.13-2.29-4.84-2.29-8.12,0-3.11.9-5.74,2.71-7.89,1.8-2.14,3.92-3.22,6.35-3.22,1.59,0,2.94.31,4.03.94,1.1.63,2.05,1.57,2.86,2.81l.46-1.85.17-.64c.1-.36.26-.58.47-.66s.45-.13.7-.13h1.19c.81,0,1.21.5,1.21,1.5v29.8c0,.33-.1.63-.29.89-.19.26-.44.39-.73.39h-2.68c-.3,0-.54-.13-.74-.39-.2-.26-.3-.55-.3-.89v-8.09c0-1.04.07-2.69.21-4.95-1.03,1.85-2.57,3.06-4.64,3.64-.69.19-1.59.29-2.68.29s-2.18-.31-3.28-.93M44,33.16c.72-.19,1.61-.29,2.69-.29s2.06.23,2.97.68c.91.46,1.63,1.08,2.16,1.88.98,1.45,1.46,3.59,1.46,6.41v11.96c0,.36-.12.66-.35.9-.23.24-.57.37-1.02.37h-1.89c-.49,0-.85-.12-1.08-.37-.23-.24-.35-.55-.35-.9v-11.97c0-3.28-1.21-4.93-3.62-4.93-1.41,0-2.7.59-3.87,1.77-1.25,1.27-1.87,2.75-1.87,4.43v10.7c0,.36-.11.66-.33.9-.22.24-.55.37-1,.37h-1.98c-.45,0-.79-.12-1.02-.37-.23-.24-.35-.55-.35-.9v-11.82c0-2.58-.08-4.38-.25-5.4-.17-1.02-.25-1.63-.25-1.84,0-.92.44-1.39,1.33-1.39h1.06c.72,0,1.2.27,1.46.81.36.77.67,1.78.92,3.04,1.15-2.11,2.88-3.45,5.16-4.04M9.83,9.83c-13.1,13.1-13.1,34.35,0,47.45,13.1,13.1,48.45,27.21,61.56,14.11,3.87-3.87,5.36-9.7,5.2-16.31h-1.67c-.5,0-.8-.1-.9-.3-.1-.2-.16-.38-.17-.54-.01-.16-.04-.36-.08-.59-.08-.63-.19-1.31-.33-2.04-1,1.84-2.57,3.05-4.72,3.64-.76.2-1.59.31-2.5.31s-1.82-.15-2.73-.45c-.91-.3-1.72-.75-2.43-1.34-1.59-1.33-2.39-3.09-2.39-5.26,0-2.37.87-4.19,2.62-5.45,1.44-1.01,3.29-1.52,5.54-1.52s4.17.66,5.74,1.98c.04-.44.06-.98.06-1.64s-.13-1.31-.39-1.96c-.26-.65-.62-1.2-1.1-1.64-.98-.86-2.34-1.29-4.08-1.29-1.56,0-3.16.43-4.77,1.29-.31.17-.58.25-.81.25-.35,0-.68-.34-1-1.02-.35-.69-.52-1.19-.52-1.5,0-.56.42-1.11,1.27-1.64,1.62-1,3.78-1.5,6.49-1.5,1.51,0,2.86.26,4.06.77-3.76-9.61-9.21-18.52-14.5-23.81C50.72,3.28,42.14,0,33.55,0S16.38,3.28,9.83,9.83" style="fill:#1e9dcd;"/><g style="clip-path:url(#clippath-2);"><rect x="-3.28" y="0" width="80.01" height="84.48" style="fill:#1e9dcd;"/></g><path d="M93.09,32.5c3.19,0,5.21,1.42,6.05,4.27,1.27-2.04,2.94-3.37,5.03-3.99.71-.2,1.6-.3,2.68-.3s2.12.27,3.12.8c1.01.53,1.75,1.22,2.24,2.08.49.85.8,1.79.93,2.82.13,1.02.2,2.13.2,3.3v11.65c0,.35-.11.65-.34.89-.23.24-.56.36-1.01.36h-1.86c-.48,0-.83-.12-1.06-.36-.23-.24-.34-.54-.34-.89v-11.82c0-1.63-.28-2.85-.84-3.64-.56-.8-1.45-1.2-2.67-1.2-1.38,0-2.59.61-3.62,1.82-1.11,1.26-1.67,2.83-1.67,4.71v10.13c0,.35-.11.65-.34.89-.23.24-.56.36-1.01.36h-1.86c-.48,0-.84-.12-1.06-.36-.23-.24-.34-.54-.34-.89v-11.82c0-1.63-.28-2.85-.84-3.64-.56-.8-1.45-1.2-2.67-1.2-1.38,0-2.59.61-3.64,1.82-1.1,1.26-1.65,2.83-1.65,4.71v10.13c0,.35-.11.65-.32.89-.21.24-.54.36-.99.36h-1.95c-.44,0-.78-.12-1.01-.36-.23-.24-.34-.54-.34-.89v-11.65c0-2.54-.08-4.32-.25-5.32s-.25-1.61-.25-1.81c0-.91.44-1.37,1.31-1.37h1.04c.71,0,1.19.27,1.44.8.3.64.59,1.64.87,3,1.1-1.99,2.69-3.3,4.78-3.95.71-.21,1.46-.32,2.24-.32" style="fill:#878786;"/><path d="M123.36,44.73l-.02.36c0,1.73.55,3.13,1.65,4.17,1.15,1.11,2.71,1.67,4.69,1.67,1.8,0,3.47-.54,5.01-1.61.29-.2.55-.3.78-.3.47,0,.82.23,1.06.7l.51,1.06c.11.25.17.52.17.82s-.13.59-.39.9-.6.59-1.01.84-.9.47-1.45.66c-.55.19-1.12.35-1.7.47-1.16.25-2.38.38-3.64.38s-2.54-.24-3.82-.72c-1.28-.48-2.39-1.18-3.33-2.11-2.01-1.96-3.02-4.61-3.02-7.95,0-5.86,2.06-9.5,6.19-10.93,1.29-.44,2.62-.66,3.98-.66s2.52.15,3.47.44c.95.29,1.78.72,2.48,1.29,1.47,1.2,2.2,2.88,2.2,5.03s-.86,3.73-2.58,4.84c-1.5.97-3.49,1.46-5.96,1.46-1.52,0-3.27-.27-5.26-.82M132.69,39.18c0-1.81-1.21-2.71-3.64-2.71s-3.93.85-4.86,2.54c-.33.59-.54,1.33-.65,2.2,1.09.54,2.47.82,4.16.82,3.33,0,4.99-.95,4.99-2.85" style="fill:#878786;"/><path d="M157.02,35.65v-13.72c0-.33.1-.61.29-.84.2-.23.44-.35.73-.35h2.64c.29,0,.53.12.72.35.19.23.28.52.28.84v24.33c0,2.56.2,4.67.61,6.36.04.18.06.4.06.67s-.12.52-.35.75c-.23.23-.53.34-.9.34h-.93c-.75,0-1.25-.3-1.5-.91-.33-.77-.6-1.79-.82-3.05-.97,2.06-2.61,3.43-4.91,4.12-.76.22-1.7.32-2.84.32s-2.26-.29-3.38-.87c-1.12-.58-2.07-1.37-2.86-2.37-1.61-2.08-2.41-4.66-2.41-7.74s.78-5.83,2.33-7.93c1.68-2.29,3.93-3.44,6.74-3.44s4.97,1.05,6.49,3.15M146.32,44c0,.86.1,1.7.31,2.52.21.82.53,1.56.96,2.2.96,1.47,2.29,2.2,3.99,2.2,1.54,0,2.9-.67,4.06-2.01,1.24-1.39,1.86-3.04,1.86-4.93,0-2.3-.6-4.15-1.8-5.54-1.15-1.33-2.57-1.99-4.25-1.99s-3.09.83-4,2.49c-.75,1.39-1.12,3.08-1.12,5.07" style="fill:#878786;"/><path d="M171.05,29.32c-.86,0-1.59-.3-2.2-.89-.61-.58-.91-1.32-.91-2.2s.3-1.59.91-2.2c.58-.58,1.32-.87,2.2-.87,1.35,0,2.3.62,2.85,1.86.16.37.25.77.25,1.21,0,.89-.3,1.62-.91,2.2-.61.59-1.33.89-2.18.89M173.27,49.17c0,.9.3,1.35.89,1.35.2,0,.43-.06.68-.17.49-.21.83-.32,1.01-.32.27,0,.48.18.64.55l.59,1.33c.1.21.15.42.15.61,0,.54-.47,1.05-1.4,1.52-.89.46-1.76.68-2.63.68s-1.56-.09-2.08-.28c-.52-.19-.96-.51-1.33-.95-.73-.91-1.1-2.39-1.1-4.44v-14.8c0-.35.1-.65.3-.89s.44-.36.72-.36h2.54c.29,0,.53.12.72.36s.28.54.28.89v14.93Z" style="fill:#878786;"/><path d="M195.94,41.42c-1.04,0-1.56-.51-1.56-1.54,0-1.18-.36-2.08-1.08-2.7-.62-.54-1.45-.82-2.49-.82s-1.91.21-2.59.64c-.68.43-1.24.98-1.67,1.65-.83,1.32-1.25,2.9-1.25,4.74,0,3.45,1.05,5.72,3.15,6.79.76.39,1.6.59,2.52.59s1.68-.1,2.28-.3c.6-.2,1.13-.42,1.59-.66.47-.24.88-.46,1.22-.66.35-.2.64-.3.86-.3.46,0,.82.21,1.08.63l.42.7c.19.33.28.65.28.96s-.13.63-.38.97c-.25.34-.59.64-1.02.92-.42.28-.91.53-1.45.76-.54.23-1.11.42-1.69.59-2.78.75-5.33.63-7.63-.34-2.58-1.09-4.36-3.04-5.33-5.84-.48-1.39-.72-2.95-.72-4.67s.26-3.26.77-4.63,1.22-2.52,2.13-3.47c1.89-1.95,4.35-2.92,7.38-2.92,2.68,0,4.74.7,6.17,2.11,1.2,1.2,1.8,2.71,1.8,4.52,0,1.53-.78,2.3-2.35,2.3h-.46Z" style="fill:#878786;"/><path d="M221.54,53.38c0,.67-.33,1.01-.99,1.01h-1.84c-.49,0-.79-.1-.89-.29-.1-.2-.16-.37-.17-.53-.01-.16-.04-.35-.08-.58-.08-.62-.18-1.29-.32-2.01-.99,1.81-2.54,3-4.65,3.59-.75.2-1.57.3-2.47.3s-1.8-.15-2.7-.45c-.9-.3-1.69-.74-2.39-1.32-1.57-1.32-2.35-3.04-2.35-5.18,0-2.34.86-4.13,2.58-5.37,1.42-1,3.24-1.5,5.47-1.5s4.11.65,5.65,1.95c.04-.43.06-.97.06-1.61s-.13-1.29-.38-1.93c-.25-.64-.61-1.18-1.08-1.61-.96-.85-2.3-1.27-4.02-1.27-1.54,0-3.11.42-4.71,1.27-.3.16-.57.25-.8.25-.34,0-.67-.34-.99-1.01-.34-.68-.51-1.18-.51-1.48,0-.56.42-1.09,1.25-1.61,1.59-.99,3.73-1.48,6.39-1.48,2.43,0,4.44.66,6.03,1.99,1.89,1.59,2.83,3.85,2.83,6.76,0,1.29-.21,2.92-.63,4.88,1.07,3.06,1.64,5.48,1.69,7.25M208.83,45.32c-.52.39-.89.77-1.11,1.15-.22.38-.33.83-.33,1.34s.09.97.28,1.37c.18.4.44.73.77,1,.7.54,1.48.82,2.34.82s1.58-.1,2.14-.3c.56-.2,1.04-.46,1.44-.78.87-.68,1.31-1.4,1.31-2.16-.08-.95-.6-1.7-1.57-2.24-.87-.51-1.9-.76-3.09-.76-.92,0-1.64.19-2.16.58" style="fill:#878786;"/><path d="M231.64,49.17c0,.9.32,1.35.95,1.35.2,0,.46-.06.78-.17.58-.21.94-.32,1.06-.32.29,0,.52.18.68.55l.59,1.35c.08.19.12.37.12.53,0,.29-.24.64-.72,1.06-.96.8-2.22,1.2-3.78,1.2-2.83,0-4.25-1.89-4.25-5.67v-27.06c0-.34.1-.63.3-.87.2-.24.44-.36.72-.36h2.54c.29,0,.53.12.72.36.19.24.28.53.28.87v27.19Z" style="fill:#878786;"/><line x1="71.77" y1="33.64" x2="76.58" y2="55.07" style="fill:none;"/></g></svg>